<?xml version="1.0" standalone="no"?>
<!DOCTYPE svg PUBLIC "-//W3C//DTD SVG 20010904//EN"
 "http://www.w3.org/TR/2001/REC-SVG-20010904/DTD/svg10.dtd">
<svg version="1.0" xmlns="http://www.w3.org/2000/svg"
 width="790.000000pt" height="790.000000pt" viewBox="0 0 790.000000 790.000000"
 preserveAspectRatio="xMidYMid meet">

<g transform="translate(0.000000,790.000000) scale(0.100000,-0.100000)"
fill="currentColor" stroke="none">
<path d="M4540 7180 l0 -390 -440 0 -440 0 0 -340 0 -340 -230 0 -230 0 0
-370 0 -370 -235 0 -235 0 0 -580 0 -580 -230 0 -230 0 0 -415 0 -415 700 0
700 0 0 -365 0 -365 -230 0 -230 0 0 -370 0 -370 -235 0 -235 0 0 -785 0 -785
315 0 315 0 0 390 0 390 230 0 230 0 0 370 0 370 220 0 220 0 0 380 0 380 230
0 230 0 0 380 0 380 230 0 230 0 0 385 0 385 225 0 225 0 0 220 0 220 -685 0
-685 0 0 365 0 365 225 0 225 0 0 375 0 375 225 0 225 0 0 750 0 750 -315 0
-315 0 0 -390z"/>
</g>
</svg>
