<svg width="886" height="886" viewBox="0 0 886 886" fill="none" xmlns="http://www.w3.org/2000/svg">
<path d="M648 154H716V222H648V154Z" fill="black"/>
<path d="M68 68H136V136H68V68Z" fill="black"/>
<path d="M750 68H818V136H750V68Z" fill="black"/>
<path d="M750 750H818V818H750V750Z" fill="black"/>
<path d="M68 750H136V818H68V750Z" fill="black"/>
<path d="M818 68H886V818H818V68Z" fill="black"/>
<path d="M0 68H68V818H0V68Z" fill="black"/>
<path d="M818 3.27835e-05V68H68V0L818 3.27835e-05Z" fill="black"/>
<path d="M818 818V886L68 886V818H818Z" fill="black"/>
<path d="M580 222H648V290H580V222Z" fill="black"/>
<path d="M648 222H716V290H648V222Z" fill="black"/>
<path d="M716 222H784V290H716V222Z" fill="black"/>
<path d="M512 290H580V358H512V290Z" fill="black"/>
<path d="M580 290H648V358H580V290Z" fill="black"/>
<path d="M648 290H716V358H648V290Z" fill="black"/>
<path d="M444 358H512V426H444V358Z" fill="black"/>
<path d="M512 358H580V426H512V358Z" fill="black"/>
<path d="M580 358H648V426H580V358Z" fill="black"/>
<path d="M376 426H444V494H376V426Z" fill="black"/>
<path d="M444 426H512V494H444V426Z" fill="black"/>
<path d="M512 426H580V494H512V426Z" fill="black"/>
<path d="M321 494H389V562H321V494Z" fill="black"/>
<path d="M253 494H321V562H253V494Z" fill="black"/>
<path d="M185 494H253V562H185V494Z" fill="black"/>
<path d="M117 426H185V494H117V426Z" fill="black"/>
<path d="M185 426H253V494H185V426Z" fill="black"/>
<path d="M246 426H314V494H246V426Z" fill="black"/>
<path d="M178 358H246V426H178V358Z" fill="black"/>
<path d="M389 494H457V562H389V494Z" fill="black"/>
<path d="M457 494H525V562H457V494Z" fill="black"/>
<path d="M253 562H321V630H253V562Z" fill="black"/>
<path d="M321 562H389V630H321V562Z" fill="black"/>
<path d="M389 562H457V630H389V562Z" fill="black"/>
<path d="M287 608H355V676H287V608Z" fill="black"/>
<path d="M355 608H423V676H355V608Z" fill="black"/>
<path d="M321 642H389V710H321V642Z" fill="black"/>
</svg>
