<svg width="690" height="690" viewBox="0 0 690 690" fill="none" xmlns="http://www.w3.org/2000/svg">
<path d="M46 112.813H139.878V577.187H46V112.813Z" fill="black"/>
<path d="M139.878 19H300.408V112.813H139.878V19Z" fill="black"/>
<path d="M201.837 297.624H362.367V391.437H201.837V297.624Z" fill="black"/>
<path d="M139.878 577.187H300.408V671H139.878V577.187Z" fill="black"/>
<path d="M362.367 170.977H456.245V297.624H362.367V170.977Z" fill="black"/>
<path d="M362.367 391.437H456.245V518.085H362.367V391.437Z" fill="black"/>
<path d="M456.245 234.77H550.122V455.23H456.245V234.77Z" fill="black"/>
<path d="M362.367 297.624H456.245V391.437H362.367V297.624Z" fill="black"/>
<path d="M456.245 297.624H550.122V391.437H456.245V297.624Z" fill="black"/>
<path d="M550.122 297.624H644V391.437H550.122V297.624Z" fill="black"/>
</svg>
