<?xml version="1.0" standalone="no"?>
<!DOCTYPE svg PUBLIC "-//W3C//DTD SVG 20010904//EN"
 "http://www.w3.org/TR/2001/REC-SVG-20010904/DTD/svg10.dtd">
<svg version="1.0" xmlns="http://www.w3.org/2000/svg"
 width="790.000000pt" height="790.000000pt" viewBox="0 0 790.000000 790.000000"
 preserveAspectRatio="xMidYMid meet">

<g transform="translate(0.000000,790.000000) scale(0.100000,-0.100000)"
fill="currentColor" stroke="none">
<path d="M2900 7630 l0 -270 -265 0 -265 0 0 -270 0 -270 -270 0 -270 0 0
-1040 0 -1040 270 0 270 0 0 -270 0 -270 -265 0 -265 0 0 -270 0 -270 -270 0
-270 0 0 -785 0 -785 265 0 265 0 0 -270 0 -270 265 0 265 0 0 -775 0 -775
1580 0 1580 0 0 775 0 775 265 0 265 0 0 270 0 270 265 0 265 0 0 785 0 785
-270 0 -270 0 0 270 0 270 -265 0 -265 0 0 270 0 270 270 0 270 0 0 1040 0
1040 -270 0 -270 0 0 270 0 270 -265 0 -265 0 0 270 0 270 -1040 0 -1040 0 0
-270z m2080 -540 l0 -270 265 0 265 0 0 -1040 0 -1040 -265 0 -265 0 0 -270 0
-270 265 0 265 0 0 -270 0 -270 265 0 265 0 0 -785 0 -785 -260 0 -260 0 0
265 0 265 -270 0 -270 0 0 -1040 0 -1040 -260 0 -260 0 0 525 0 525 -525 0
-525 0 0 -525 0 -525 -255 0 -255 0 0 1040 0 1040 -270 0 -270 0 0 -265 0
-265 -260 0 -260 0 0 785 0 785 265 0 265 0 0 270 0 270 265 0 265 0 0 270 0
270 -265 0 -265 0 0 1040 0 1040 265 0 265 0 0 270 0 270 1040 0 1040 0 0
-270z"/>
<path d="M2900 5510 l0 -270 265 0 265 0 0 270 0 270 -265 0 -265 0 0 -270z"/>
<path d="M4450 5510 l0 -270 265 0 265 0 0 270 0 270 -265 0 -265 0 0 -270z"/>
</g>
</svg>
