<svg width="690" height="690" viewBox="0 0 690 690" fill="none" xmlns="http://www.w3.org/2000/svg">
<path d="M12 470H243V570H12V470Z" fill="black"/>
<path d="M12 120H243V220H12V120Z" fill="black"/>
<path d="M193 420H293V520H193V420Z" fill="black"/>
<path d="M243 320H343V420H243V320Z" fill="black"/>
<path d="M293 220H393V320H293V220Z" fill="black"/>
<path d="M193 170H293V270H193V170Z" fill="black"/>
<path d="M345 470H579V570H345V470Z" fill="black"/>
<path d="M577 120H677V220H577V120Z" fill="black"/>
<path d="M579 470H679V570H579V470Z" fill="black"/>
<path d="M527 70H627V170H527V70Z" fill="black"/>
<path d="M477 20H577V120H477V20Z" fill="black"/>
<path d="M527 170H627V270H527V170Z" fill="black"/>
<path d="M477 220H577V320H477V220Z" fill="black"/>
<path d="M529 420H629V520H529V420Z" fill="black"/>
<path d="M479 370H579V470H479V370Z" fill="black"/>
<path d="M529 520H629V620H529V520Z" fill="black"/>
<path d="M479 570H579V670H479V570Z" fill="black"/>
<path d="M343 120H577V220H343V120Z" fill="black"/>
</svg>
